{"accessors":[{"bufferView":0,"byteOffset":0,"componentType":5126,"count":7225,"max":[252,24.8039207458496,252],"min":[0,0,0],"normalized":false,"type":"VEC3"},{"bufferView":1,"byteOffset":0,"componentType":5123,"count":42336,"max":[7224],"min":[0],"normalized":false,"type":"SCALAR"}],"asset":{"generator":"Godot Engine v4.3.stable.steam@77dcf97d82cbfe4e4615475fa52ca03da645dbd8","version":"2.0"},"bufferViews":[{"buffer":0,"byteLength":86700,"byteOffset":0,"byteStride":12,"target":34962},{"buffer":0,"byteLength":84672,"byteOffset":86700,"target":34963}],"buffers":[{"byteLength":171372,"uri":"map_terrain0.bin"}],"extensionsUsed":["GODOT_single_root"],"materials":[{"extensions":{},"pbrMetallicRoughness":{"baseColorFactor":[0.99999988079071,0.99999988079071,0.99999988079071,1],"metallicFactor":0,"roughnessFactor":1}}],"meshes":[{"extras":{"targetNames":[]},"primitives":[{"attributes":{"POSITION":0},"indices":1,"material":0,"mode":4}]}],"nodes":[{"mesh":0,"name":"MapTerrain"}],"scene":0,"scenes":[{"nodes":[0]}]}